<<<<<<<
<mxfile host="app.diagrams.net" modified="2020-11-28T09:45:25.924Z" agent="5.0 (Macintosh; Intel Mac OS X 10_15_7) AppleWebKit/537.36 (KHTML, like Gecko) Chrome/87.0.4280.67 Safari/537.36" etag="SbZQO05AiI6Gdfk40Ae1" version="13.10.4" type="device"><diagram id="fA7O_Vqsrc5dq5YTEMsi" name="Page-1">7V1tc9o4EP41zNx9aAdjm9CPgZBe2rwVkmtyX24UW2BPjcXIIsD9+lvZ8guWISYYUKhnMsFaybK0z+qRvLsJDb03WXylaOrcEBt7jVbTXjT0i0arpXU0Ez64ZBlJDOMsEoypa4tGqWDo/oeFsCmkM9fGwUpDRojH3Omq0CK+jy22IkOUkvlqsxHxVp86RWMsCYYW8mTpT9dmTiTttM5S+V/YHTvxk7X2l6hmguLGYiaBg2wyz4j0fkPvUUJYdDVZ9LDHlRfrJbrvck1tMjCKfVbmhvvB399vfjjD4Mm4vR89/tt7+mZ/Er28Im+G42ZXN+eDZxA+DvsD+Li6vbyDj4fz7nVfzIQtY/XApKb8kqEXLuoGDFEmUNSbIABcGHJ9TEGghWXPQ9PADZtHEsf17Gu0JDMWdxSXuiN3ge1BBCJvC3heQ2e8yDsfQedDMRhejTx37MO1BSrhT+xSHMBYrlHARAtZabEGMGV4kREJJX7FZIIZXUITUfupLQAVFq19EeV5ah+JzMnYRmIJSNjkOOk7hQ0uBHJboNiSUFwLFEyducgbwFpB/jjEbBUSrlebkukDomPMhGBKXK7R/iuoLVG+63k94hGOrE983hMjU1Hp4VF87wthjExiAIU6kk5DVZhd+AHl9JqfzYYJw+1BWUvL8MObU9YjfsAo2BPvAwOsc8yhLYB1o7W/jbXAVi8Jrb4vZHV5fX7fDtuQFlGK7dawNXOw5RcdAXWOvJDZHNe2sV8ej1ZpPDIA6IfUvyHp/zHA9OriyBjERBe17QZTZLn++Dq6s50DyTwUSIv1i6Z9SNDMD0GHeUw/AB22j02HbQnZy2PTIbbduL8d2dAsDcex2PBMUr/nwlkrwL/w8iq0U15JLQfRP7T2n6qT5EGwUoUUOzUp7ocUyx7/94bslx2RVZgSO6XBOBYlxn6KjPbxBLkesm14+QxWOdFsnjInlgdLFU7UZPdHTYqVkKLWOjYrars6RRSmRa08HkfjRdlzMZ07KHByp8TTpsQtgFKFE3V5Q6s5sRpONI/Nifqu+53CnJjYrbqcqMtb0shHE7xKicZJM+IWMCnDiPJWVjNiNYzYOTojyg7+02FEvTQeR2NE2VUf/HaMWB4mVRhRk2G7vur1b4f9Rp0okMCUxPsF27WMAtw6BbjtL1FAkwMoKm5lCmQKlHfwb0gVKAJ3f4tSjs6cUq5AYrrq7maaHGNZjY+pvYdVmDOwBVgb9jTzkOAZtS94X9RYlDZwUGo05BfvE8obMNT3BhsF3mBK7JnFfq+0gS2gUoUXtV3DyzUvruPFosyBg/Ji/J5xit6PxG7VZcWWfORAFnNfEcN2xIovhHgfkQ6zR8lm9YCpwo3xcqm5sXJuLEwgOCw57ur2V5gcE8NVmBxlz7wDY8mdFpsn7RreAiZlKLFOvt8bJRblDxyWEnd1H6tMieqn37dkD6+NX7mHUQqZnToxVpJ/f1Bi1GXwamKsiBiL0ggOSoz6rn9doTAxJoarLjHqso8KL6YuxTa8SkfEGF2dLCFuAZIqhBhHwzetGWyPcexHAAW4bDnAHmIu8ftpTeRtiFIJNJhx12ETT9g99u1z/l8goNgfTJBv34XAhdkHRRXwELp8itcQLzzzwmczLl4sspUXy7i0cNlT/Ey4ztwFpfQmXojvkaEV/qCAzKiFN6hOMCSL2X8tlYrzGldj2YULJwfZCBIhDdX/ilfGW2Qa4hn3fPvIGF1sYXHQ/CxnXdHUxV2pgUkdGbmOWvmOIt1IHYWWmkx8B+MtkTdWrfEC4zyQG+Qv32lt77Xs91tpHOx400wN5c3UeKeZttelAB3KTOW38eHd5cPP8wHP1Lof3F089h4adc5WyiudNci/dbRMEvCq3yfrnK1yZyDj4+VsGaeds2Won7NlyG9umcwEtd8XKkzY2gIpZd4f6sSEffHi0RO2zBLvhh/Vn5LYrbqkaMqJCTApPAdG4gsCxJFTxZ9NVOfIwwClCiearZoT98SJR0/WMk84HyGxW4U5Ufb4CE6cUtcSXmZrRkFoLU+YFbeAShlWrHMS9sWKx0/TMk84J8FUPyfB3DWs/bHIT+m8g+fnW/Pl281i9vDP882wo2mDadF/+F6LD+xe3rJLkfWLE1t37rgMD0F9vG5OEYCQjU5QMvNtbDeyvldJLwXu2LWqSv7yPx8cyuiuVaC6vE+9MtXJ2wYYnQMS5uAAdvwmj+pQHIRDDLt74VI4D0wQdT0+NcsBS+fZ3M0XXjy/v+JC5Hn8phEFAw57g9+zAFMOCxmxOahMAgn0ylYBAKYnv3BurRQsH8lxzlFyYRDnomICqyBcjUWIpzA3q4HZWEXZbBahXABzFQ72QphLbCCZSJzloSBwrUYuUhcH1z4nxZKBY166x2AyOARnJZqcxvSeMzWbosm5ENqbgbtNdp+N262nlo1bURHTxbIdY3Rr7WjbGJ2e60jPU/GaGB0YBFpmmonj2toBa7nvDdAF3aWmG/VYMgAIxfS7I6Lm6Tdw6P3/AQ==</diagram></mxfile>
=======
<mxfile host="app.diagrams.net" modified="2020-11-27T19:15:31.290Z" agent="5.0 (Macintosh; Intel Mac OS X 10_15_7) AppleWebKit/537.36 (KHTML, like Gecko) Chrome/87.0.4280.67 Safari/537.36" etag="QBE4n2fOokZY8rdEjoYQ" version="13.10.4" type="github">
  <diagram id="fA7O_Vqsrc5dq5YTEMsi" name="Page-1">
    <mxGraphModel dx="2013" dy="536" grid="1" gridSize="10" guides="1" tooltips="1" connect="1" arrows="1" fold="1" page="1" pageScale="1" pageWidth="827" pageHeight="1169" math="0" shadow="0">
      <root>
        <mxCell id="0" />
        <mxCell id="1" parent="0" />
        <mxCell id="PRVKMQhSsX4NPfU_CXJd-1" value="PRIMARY USER INFO TABLE" style="shape=table;startSize=30;container=1;collapsible=1;childLayout=tableLayout;fixedRows=1;rowLines=0;fontStyle=1;align=center;resizeLast=1;" parent="1" vertex="1">
          <mxGeometry x="-60" y="190" width="190" height="220" as="geometry" />
        </mxCell>
        <mxCell id="PRVKMQhSsX4NPfU_CXJd-2" value="" style="shape=partialRectangle;collapsible=0;dropTarget=0;pointerEvents=0;fillColor=none;top=0;left=0;bottom=1;right=0;points=[[0,0.5],[1,0.5]];portConstraint=eastwest;" parent="PRVKMQhSsX4NPfU_CXJd-1" vertex="1">
          <mxGeometry y="30" width="190" height="30" as="geometry" />
        </mxCell>
        <mxCell id="PRVKMQhSsX4NPfU_CXJd-3" value="PK" style="shape=partialRectangle;connectable=0;fillColor=none;top=0;left=0;bottom=0;right=0;fontStyle=1;overflow=hidden;" parent="PRVKMQhSsX4NPfU_CXJd-2" vertex="1">
          <mxGeometry width="30" height="30" as="geometry" />
        </mxCell>
        <mxCell id="PRVKMQhSsX4NPfU_CXJd-4" value="UserID" style="shape=partialRectangle;connectable=0;fillColor=none;top=0;left=0;bottom=0;right=0;align=left;spacingLeft=6;fontStyle=5;overflow=hidden;" parent="PRVKMQhSsX4NPfU_CXJd-2" vertex="1">
          <mxGeometry x="30" width="160" height="30" as="geometry" />
        </mxCell>
        <mxCell id="PRVKMQhSsX4NPfU_CXJd-5" value="" style="shape=partialRectangle;collapsible=0;dropTarget=0;pointerEvents=0;fillColor=none;top=0;left=0;bottom=0;right=0;points=[[0,0.5],[1,0.5]];portConstraint=eastwest;" parent="PRVKMQhSsX4NPfU_CXJd-1" vertex="1">
          <mxGeometry y="60" width="190" height="30" as="geometry" />
        </mxCell>
        <mxCell id="PRVKMQhSsX4NPfU_CXJd-6" value="" style="shape=partialRectangle;connectable=0;fillColor=none;top=0;left=0;bottom=0;right=0;editable=1;overflow=hidden;" parent="PRVKMQhSsX4NPfU_CXJd-5" vertex="1">
          <mxGeometry width="30" height="30" as="geometry" />
        </mxCell>
        <mxCell id="PRVKMQhSsX4NPfU_CXJd-7" value="licensekeyID, varchar(16)" style="shape=partialRectangle;connectable=0;fillColor=none;top=0;left=0;bottom=0;right=0;align=left;spacingLeft=6;overflow=hidden;" parent="PRVKMQhSsX4NPfU_CXJd-5" vertex="1">
          <mxGeometry x="30" width="160" height="30" as="geometry" />
        </mxCell>
        <mxCell id="PRVKMQhSsX4NPfU_CXJd-8" value="" style="shape=partialRectangle;collapsible=0;dropTarget=0;pointerEvents=0;fillColor=none;top=0;left=0;bottom=0;right=0;points=[[0,0.5],[1,0.5]];portConstraint=eastwest;" parent="PRVKMQhSsX4NPfU_CXJd-1" vertex="1">
          <mxGeometry y="90" width="190" height="30" as="geometry" />
        </mxCell>
        <mxCell id="PRVKMQhSsX4NPfU_CXJd-9" value="" style="shape=partialRectangle;connectable=0;fillColor=none;top=0;left=0;bottom=0;right=0;editable=1;overflow=hidden;" parent="PRVKMQhSsX4NPfU_CXJd-8" vertex="1">
          <mxGeometry width="30" height="30" as="geometry" />
        </mxCell>
        <mxCell id="PRVKMQhSsX4NPfU_CXJd-10" value="emailaddress, varchar(50)" style="shape=partialRectangle;connectable=0;fillColor=none;top=0;left=0;bottom=0;right=0;align=left;spacingLeft=6;overflow=hidden;" parent="PRVKMQhSsX4NPfU_CXJd-8" vertex="1">
          <mxGeometry x="30" width="160" height="30" as="geometry" />
        </mxCell>
        <mxCell id="PRVKMQhSsX4NPfU_CXJd-11" value="" style="shape=partialRectangle;collapsible=0;dropTarget=0;pointerEvents=0;fillColor=none;top=0;left=0;bottom=0;right=0;points=[[0,0.5],[1,0.5]];portConstraint=eastwest;" parent="PRVKMQhSsX4NPfU_CXJd-1" vertex="1">
          <mxGeometry y="120" width="190" height="30" as="geometry" />
        </mxCell>
        <mxCell id="PRVKMQhSsX4NPfU_CXJd-12" value="" style="shape=partialRectangle;connectable=0;fillColor=none;top=0;left=0;bottom=0;right=0;editable=1;overflow=hidden;" parent="PRVKMQhSsX4NPfU_CXJd-11" vertex="1">
          <mxGeometry width="30" height="30" as="geometry" />
        </mxCell>
        <mxCell id="PRVKMQhSsX4NPfU_CXJd-13" value="pwhash, varchar(150)" style="shape=partialRectangle;connectable=0;fillColor=none;top=0;left=0;bottom=0;right=0;align=left;spacingLeft=6;overflow=hidden;" parent="PRVKMQhSsX4NPfU_CXJd-11" vertex="1">
          <mxGeometry x="30" width="160" height="30" as="geometry" />
        </mxCell>
        <mxCell id="PRVKMQhSsX4NPfU_CXJd-30" value="" style="shape=partialRectangle;collapsible=0;dropTarget=0;pointerEvents=0;fillColor=none;top=0;left=0;bottom=0;right=0;points=[[0,0.5],[1,0.5]];portConstraint=eastwest;" parent="PRVKMQhSsX4NPfU_CXJd-1" vertex="1">
          <mxGeometry y="150" width="190" height="30" as="geometry" />
        </mxCell>
        <mxCell id="PRVKMQhSsX4NPfU_CXJd-31" value="" style="shape=partialRectangle;connectable=0;fillColor=none;top=0;left=0;bottom=0;right=0;editable=1;overflow=hidden;" parent="PRVKMQhSsX4NPfU_CXJd-30" vertex="1">
          <mxGeometry width="30" height="30" as="geometry" />
        </mxCell>
        <mxCell id="PRVKMQhSsX4NPfU_CXJd-32" value="fname, varchar(40)" style="shape=partialRectangle;connectable=0;fillColor=none;top=0;left=0;bottom=0;right=0;align=left;spacingLeft=6;overflow=hidden;" parent="PRVKMQhSsX4NPfU_CXJd-30" vertex="1">
          <mxGeometry x="30" width="160" height="30" as="geometry" />
        </mxCell>
        <mxCell id="PRVKMQhSsX4NPfU_CXJd-33" value="" style="shape=partialRectangle;collapsible=0;dropTarget=0;pointerEvents=0;fillColor=none;top=0;left=0;bottom=0;right=0;points=[[0,0.5],[1,0.5]];portConstraint=eastwest;" parent="PRVKMQhSsX4NPfU_CXJd-1" vertex="1">
          <mxGeometry y="180" width="190" height="30" as="geometry" />
        </mxCell>
        <mxCell id="PRVKMQhSsX4NPfU_CXJd-34" value="" style="shape=partialRectangle;connectable=0;fillColor=none;top=0;left=0;bottom=0;right=0;editable=1;overflow=hidden;" parent="PRVKMQhSsX4NPfU_CXJd-33" vertex="1">
          <mxGeometry width="30" height="30" as="geometry" />
        </mxCell>
        <mxCell id="PRVKMQhSsX4NPfU_CXJd-35" value="sname, varchar(40)" style="shape=partialRectangle;connectable=0;fillColor=none;top=0;left=0;bottom=0;right=0;align=left;spacingLeft=6;overflow=hidden;" parent="PRVKMQhSsX4NPfU_CXJd-33" vertex="1">
          <mxGeometry x="30" width="160" height="30" as="geometry" />
        </mxCell>
        <mxCell id="PRVKMQhSsX4NPfU_CXJd-15" value="LICENSE TABLE" style="shape=table;startSize=30;container=1;collapsible=1;childLayout=tableLayout;fixedRows=1;rowLines=0;fontStyle=1;align=center;resizeLast=1;" parent="1" vertex="1">
          <mxGeometry x="220" y="240" width="180" height="220" as="geometry" />
        </mxCell>
        <mxCell id="PRVKMQhSsX4NPfU_CXJd-16" value="" style="shape=partialRectangle;collapsible=0;dropTarget=0;pointerEvents=0;fillColor=none;top=0;left=0;bottom=1;right=0;points=[[0,0.5],[1,0.5]];portConstraint=eastwest;" parent="PRVKMQhSsX4NPfU_CXJd-15" vertex="1">
          <mxGeometry y="30" width="180" height="30" as="geometry" />
        </mxCell>
        <mxCell id="PRVKMQhSsX4NPfU_CXJd-17" value="PK" style="shape=partialRectangle;connectable=0;fillColor=none;top=0;left=0;bottom=0;right=0;fontStyle=1;overflow=hidden;" parent="PRVKMQhSsX4NPfU_CXJd-16" vertex="1">
          <mxGeometry width="30" height="30" as="geometry" />
        </mxCell>
        <mxCell id="PRVKMQhSsX4NPfU_CXJd-18" value="licensekeyID" style="shape=partialRectangle;connectable=0;fillColor=none;top=0;left=0;bottom=0;right=0;align=left;spacingLeft=6;fontStyle=5;overflow=hidden;" parent="PRVKMQhSsX4NPfU_CXJd-16" vertex="1">
          <mxGeometry x="30" width="150" height="30" as="geometry" />
        </mxCell>
        <mxCell id="PRVKMQhSsX4NPfU_CXJd-41" value="" style="shape=partialRectangle;collapsible=0;dropTarget=0;pointerEvents=0;fillColor=none;top=0;left=0;bottom=0;right=0;points=[[0,0.5],[1,0.5]];portConstraint=eastwest;" parent="PRVKMQhSsX4NPfU_CXJd-15" vertex="1">
          <mxGeometry y="60" width="180" height="30" as="geometry" />
        </mxCell>
        <mxCell id="PRVKMQhSsX4NPfU_CXJd-42" value="" style="shape=partialRectangle;connectable=0;fillColor=none;top=0;left=0;bottom=0;right=0;editable=1;overflow=hidden;" parent="PRVKMQhSsX4NPfU_CXJd-41" vertex="1">
          <mxGeometry width="30" height="30" as="geometry" />
        </mxCell>
        <mxCell id="PRVKMQhSsX4NPfU_CXJd-43" value="productID, varchar(16)" style="shape=partialRectangle;connectable=0;fillColor=none;top=0;left=0;bottom=0;right=0;align=left;spacingLeft=6;overflow=hidden;" parent="PRVKMQhSsX4NPfU_CXJd-41" vertex="1">
          <mxGeometry x="30" width="150" height="30" as="geometry" />
        </mxCell>
        <mxCell id="PRVKMQhSsX4NPfU_CXJd-19" value="" style="shape=partialRectangle;collapsible=0;dropTarget=0;pointerEvents=0;fillColor=none;top=0;left=0;bottom=0;right=0;points=[[0,0.5],[1,0.5]];portConstraint=eastwest;" parent="PRVKMQhSsX4NPfU_CXJd-15" vertex="1">
          <mxGeometry y="90" width="180" height="30" as="geometry" />
        </mxCell>
        <mxCell id="PRVKMQhSsX4NPfU_CXJd-20" value="" style="shape=partialRectangle;connectable=0;fillColor=none;top=0;left=0;bottom=0;right=0;editable=1;overflow=hidden;" parent="PRVKMQhSsX4NPfU_CXJd-19" vertex="1">
          <mxGeometry width="30" height="30" as="geometry" />
        </mxCell>
        <mxCell id="PRVKMQhSsX4NPfU_CXJd-21" value="activated, bool" style="shape=partialRectangle;connectable=0;fillColor=none;top=0;left=0;bottom=0;right=0;align=left;spacingLeft=6;overflow=hidden;fontStyle=0" parent="PRVKMQhSsX4NPfU_CXJd-19" vertex="1">
          <mxGeometry x="30" width="150" height="30" as="geometry" />
        </mxCell>
        <mxCell id="PRVKMQhSsX4NPfU_CXJd-22" value="" style="shape=partialRectangle;collapsible=0;dropTarget=0;pointerEvents=0;fillColor=none;top=0;left=0;bottom=0;right=0;points=[[0,0.5],[1,0.5]];portConstraint=eastwest;" parent="PRVKMQhSsX4NPfU_CXJd-15" vertex="1">
          <mxGeometry y="120" width="180" height="30" as="geometry" />
        </mxCell>
        <mxCell id="PRVKMQhSsX4NPfU_CXJd-23" value="" style="shape=partialRectangle;connectable=0;fillColor=none;top=0;left=0;bottom=0;right=0;editable=1;overflow=hidden;" parent="PRVKMQhSsX4NPfU_CXJd-22" vertex="1">
          <mxGeometry width="30" height="30" as="geometry" />
        </mxCell>
        <mxCell id="PRVKMQhSsX4NPfU_CXJd-24" value="hwid, varchar(100)" style="shape=partialRectangle;connectable=0;fillColor=none;top=0;left=0;bottom=0;right=0;align=left;spacingLeft=6;overflow=hidden;" parent="PRVKMQhSsX4NPfU_CXJd-22" vertex="1">
          <mxGeometry x="30" width="150" height="30" as="geometry" />
        </mxCell>
        <mxCell id="PRVKMQhSsX4NPfU_CXJd-25" value="" style="shape=partialRectangle;collapsible=0;dropTarget=0;pointerEvents=0;fillColor=none;top=0;left=0;bottom=0;right=0;points=[[0,0.5],[1,0.5]];portConstraint=eastwest;" parent="PRVKMQhSsX4NPfU_CXJd-15" vertex="1">
          <mxGeometry y="150" width="180" height="30" as="geometry" />
        </mxCell>
        <mxCell id="PRVKMQhSsX4NPfU_CXJd-26" value="" style="shape=partialRectangle;connectable=0;fillColor=none;top=0;left=0;bottom=0;right=0;editable=1;overflow=hidden;" parent="PRVKMQhSsX4NPfU_CXJd-25" vertex="1">
          <mxGeometry width="30" height="30" as="geometry" />
        </mxCell>
        <mxCell id="PRVKMQhSsX4NPfU_CXJd-27" value="devicename, varchar(100)" style="shape=partialRectangle;connectable=0;fillColor=none;top=0;left=0;bottom=0;right=0;align=left;spacingLeft=6;overflow=hidden;" parent="PRVKMQhSsX4NPfU_CXJd-25" vertex="1">
          <mxGeometry x="30" width="150" height="30" as="geometry" />
        </mxCell>
        <mxCell id="PRVKMQhSsX4NPfU_CXJd-37" value="" style="shape=partialRectangle;collapsible=0;dropTarget=0;pointerEvents=0;fillColor=none;top=0;left=0;bottom=0;right=0;points=[[0,0.5],[1,0.5]];portConstraint=eastwest;" parent="PRVKMQhSsX4NPfU_CXJd-15" vertex="1">
          <mxGeometry y="180" width="180" height="30" as="geometry" />
        </mxCell>
        <mxCell id="PRVKMQhSsX4NPfU_CXJd-38" value="" style="shape=partialRectangle;connectable=0;fillColor=none;top=0;left=0;bottom=0;right=0;editable=1;overflow=hidden;" parent="PRVKMQhSsX4NPfU_CXJd-37" vertex="1">
          <mxGeometry width="30" height="30" as="geometry" />
        </mxCell>
        <mxCell id="PRVKMQhSsX4NPfU_CXJd-39" value="expiredate, date" style="shape=partialRectangle;connectable=0;fillColor=none;top=0;left=0;bottom=0;right=0;align=left;spacingLeft=6;overflow=hidden;" parent="PRVKMQhSsX4NPfU_CXJd-37" vertex="1">
          <mxGeometry x="30" width="150" height="30" as="geometry" />
        </mxCell>
        <mxCell id="PRVKMQhSsX4NPfU_CXJd-40" value="" style="edgeStyle=entityRelationEdgeStyle;fontSize=12;html=1;endArrow=ERmandOne;startArrow=ERmandOne;entryX=0;entryY=0.5;entryDx=0;entryDy=0;exitX=1;exitY=0.5;exitDx=0;exitDy=0;" parent="1" source="PRVKMQhSsX4NPfU_CXJd-5" target="PRVKMQhSsX4NPfU_CXJd-16" edge="1">
          <mxGeometry width="100" height="100" relative="1" as="geometry">
            <mxPoint x="350" y="370" as="sourcePoint" />
            <mxPoint x="450" y="270" as="targetPoint" />
          </mxGeometry>
        </mxCell>
        <mxCell id="PRVKMQhSsX4NPfU_CXJd-45" value="SOFTWARE PRODUCT TABLE" style="shape=table;startSize=30;container=1;collapsible=1;childLayout=tableLayout;fixedRows=1;rowLines=0;fontStyle=1;align=center;resizeLast=1;" parent="1" vertex="1">
          <mxGeometry x="480" y="340" width="180" height="160" as="geometry" />
        </mxCell>
        <mxCell id="PRVKMQhSsX4NPfU_CXJd-46" value="" style="shape=partialRectangle;collapsible=0;dropTarget=0;pointerEvents=0;fillColor=none;top=0;left=0;bottom=1;right=0;points=[[0,0.5],[1,0.5]];portConstraint=eastwest;" parent="PRVKMQhSsX4NPfU_CXJd-45" vertex="1">
          <mxGeometry y="30" width="180" height="30" as="geometry" />
        </mxCell>
        <mxCell id="PRVKMQhSsX4NPfU_CXJd-47" value="PK" style="shape=partialRectangle;connectable=0;fillColor=none;top=0;left=0;bottom=0;right=0;fontStyle=1;overflow=hidden;" parent="PRVKMQhSsX4NPfU_CXJd-46" vertex="1">
          <mxGeometry width="30" height="30" as="geometry" />
        </mxCell>
        <mxCell id="PRVKMQhSsX4NPfU_CXJd-48" value="productID" style="shape=partialRectangle;connectable=0;fillColor=none;top=0;left=0;bottom=0;right=0;align=left;spacingLeft=6;fontStyle=5;overflow=hidden;" parent="PRVKMQhSsX4NPfU_CXJd-46" vertex="1">
          <mxGeometry x="30" width="150" height="30" as="geometry" />
        </mxCell>
        <mxCell id="PRVKMQhSsX4NPfU_CXJd-49" value="" style="shape=partialRectangle;collapsible=0;dropTarget=0;pointerEvents=0;fillColor=none;top=0;left=0;bottom=0;right=0;points=[[0,0.5],[1,0.5]];portConstraint=eastwest;" parent="PRVKMQhSsX4NPfU_CXJd-45" vertex="1">
          <mxGeometry y="60" width="180" height="30" as="geometry" />
        </mxCell>
        <mxCell id="PRVKMQhSsX4NPfU_CXJd-50" value="" style="shape=partialRectangle;connectable=0;fillColor=none;top=0;left=0;bottom=0;right=0;editable=1;overflow=hidden;" parent="PRVKMQhSsX4NPfU_CXJd-49" vertex="1">
          <mxGeometry width="30" height="30" as="geometry" />
        </mxCell>
        <mxCell id="PRVKMQhSsX4NPfU_CXJd-51" value="renewalinterval, num" style="shape=partialRectangle;connectable=0;fillColor=none;top=0;left=0;bottom=0;right=0;align=left;spacingLeft=6;overflow=hidden;" parent="PRVKMQhSsX4NPfU_CXJd-49" vertex="1">
          <mxGeometry x="30" width="150" height="30" as="geometry" />
        </mxCell>
        <mxCell id="PRVKMQhSsX4NPfU_CXJd-52" value="" style="shape=partialRectangle;collapsible=0;dropTarget=0;pointerEvents=0;fillColor=none;top=0;left=0;bottom=0;right=0;points=[[0,0.5],[1,0.5]];portConstraint=eastwest;" parent="PRVKMQhSsX4NPfU_CXJd-45" vertex="1">
          <mxGeometry y="90" width="180" height="30" as="geometry" />
        </mxCell>
        <mxCell id="PRVKMQhSsX4NPfU_CXJd-53" value="" style="shape=partialRectangle;connectable=0;fillColor=none;top=0;left=0;bottom=0;right=0;editable=1;overflow=hidden;" parent="PRVKMQhSsX4NPfU_CXJd-52" vertex="1">
          <mxGeometry width="30" height="30" as="geometry" />
        </mxCell>
        <mxCell id="PRVKMQhSsX4NPfU_CXJd-54" value="renewalprice, currency" style="shape=partialRectangle;connectable=0;fillColor=none;top=0;left=0;bottom=0;right=0;align=left;spacingLeft=6;overflow=hidden;" parent="PRVKMQhSsX4NPfU_CXJd-52" vertex="1">
          <mxGeometry x="30" width="150" height="30" as="geometry" />
        </mxCell>
        <mxCell id="PRVKMQhSsX4NPfU_CXJd-55" value="" style="shape=partialRectangle;collapsible=0;dropTarget=0;pointerEvents=0;fillColor=none;top=0;left=0;bottom=0;right=0;points=[[0,0.5],[1,0.5]];portConstraint=eastwest;" parent="PRVKMQhSsX4NPfU_CXJd-45" vertex="1">
          <mxGeometry y="120" width="180" height="30" as="geometry" />
        </mxCell>
        <mxCell id="PRVKMQhSsX4NPfU_CXJd-56" value="" style="shape=partialRectangle;connectable=0;fillColor=none;top=0;left=0;bottom=0;right=0;editable=1;overflow=hidden;" parent="PRVKMQhSsX4NPfU_CXJd-55" vertex="1">
          <mxGeometry width="30" height="30" as="geometry" />
        </mxCell>
        <mxCell id="PRVKMQhSsX4NPfU_CXJd-57" value="" style="shape=partialRectangle;connectable=0;fillColor=none;top=0;left=0;bottom=0;right=0;align=left;spacingLeft=6;overflow=hidden;" parent="PRVKMQhSsX4NPfU_CXJd-55" vertex="1">
          <mxGeometry x="30" width="150" height="30" as="geometry" />
        </mxCell>
        <mxCell id="QkGqT-U-OaRAQX5VRRZq-1" value="" style="edgeStyle=entityRelationEdgeStyle;fontSize=12;html=1;endArrow=ERoneToMany;entryX=1;entryY=0.5;entryDx=0;entryDy=0;exitX=0;exitY=0.5;exitDx=0;exitDy=0;" edge="1" parent="1" source="PRVKMQhSsX4NPfU_CXJd-46" target="PRVKMQhSsX4NPfU_CXJd-41">
          <mxGeometry width="100" height="100" relative="1" as="geometry">
            <mxPoint x="220" y="330" as="sourcePoint" />
            <mxPoint x="320" y="230" as="targetPoint" />
          </mxGeometry>
        </mxCell>
      </root>
    </mxGraphModel>
  </diagram>
</mxfile>
>>>>>>>